<mxfile host="app.diagrams.net" modified="2023-11-27T08:23:53.174Z" agent="Mozilla/5.0 (Windows NT 10.0; Win64; x64) AppleWebKit/537.36 (KHTML, like Gecko) Chrome/119.0.0.0 Safari/537.36" etag="5hnJJh1J2cw1vRsc4l0Z" version="22.1.4" type="github">
  <diagram name="Page-1" id="v4D-5TRAHm31pBRaTfXf">
    <mxGraphModel dx="2580" dy="1325" grid="1" gridSize="10" guides="1" tooltips="1" connect="1" arrows="1" fold="1" page="1" pageScale="1" pageWidth="1100" pageHeight="1200" math="0" shadow="0">
      <root>
        <mxCell id="0" />
        <mxCell id="1" parent="0" />
        <mxCell id="GrQlZQ7Z27dUGGfjWGh0-12" style="edgeStyle=orthogonalEdgeStyle;rounded=0;orthogonalLoop=1;jettySize=auto;html=1;entryX=0;entryY=0.5;entryDx=0;entryDy=0;strokeWidth=2;" parent="1" source="GrQlZQ7Z27dUGGfjWGh0-13" target="GrQlZQ7Z27dUGGfjWGh0-15" edge="1">
          <mxGeometry relative="1" as="geometry" />
        </mxCell>
        <mxCell id="GrQlZQ7Z27dUGGfjWGh0-13" value="&lt;font style=&quot;font-size: 24px;&quot;&gt;&lt;b style=&quot;&quot;&gt;A&lt;/b&gt;&lt;/font&gt;" style="ellipse;whiteSpace=wrap;html=1;aspect=fixed;" parent="1" vertex="1">
          <mxGeometry x="200" y="320" width="80" height="80" as="geometry" />
        </mxCell>
        <mxCell id="GrQlZQ7Z27dUGGfjWGh0-14" style="edgeStyle=orthogonalEdgeStyle;rounded=0;orthogonalLoop=1;jettySize=auto;html=1;entryX=0;entryY=0.5;entryDx=0;entryDy=0;strokeWidth=2;" parent="1" source="GrQlZQ7Z27dUGGfjWGh0-15" target="GrQlZQ7Z27dUGGfjWGh0-17" edge="1">
          <mxGeometry relative="1" as="geometry" />
        </mxCell>
        <mxCell id="GrQlZQ7Z27dUGGfjWGh0-15" value="&lt;font style=&quot;font-size: 24px;&quot;&gt;&lt;b style=&quot;&quot;&gt;L&lt;/b&gt;&lt;/font&gt;" style="ellipse;whiteSpace=wrap;html=1;aspect=fixed;" parent="1" vertex="1">
          <mxGeometry x="360" y="320" width="80" height="80" as="geometry" />
        </mxCell>
        <mxCell id="GrQlZQ7Z27dUGGfjWGh0-16" style="edgeStyle=orthogonalEdgeStyle;rounded=0;orthogonalLoop=1;jettySize=auto;html=1;entryX=0;entryY=0.5;entryDx=0;entryDy=0;strokeWidth=2;" parent="1" source="GrQlZQ7Z27dUGGfjWGh0-17" target="GrQlZQ7Z27dUGGfjWGh0-19" edge="1">
          <mxGeometry relative="1" as="geometry" />
        </mxCell>
        <mxCell id="GrQlZQ7Z27dUGGfjWGh0-17" value="&lt;font style=&quot;font-size: 24px;&quot;&gt;&lt;b style=&quot;&quot;&gt;G&lt;/b&gt;&lt;/font&gt;" style="ellipse;whiteSpace=wrap;html=1;aspect=fixed;" parent="1" vertex="1">
          <mxGeometry x="520" y="320" width="80" height="80" as="geometry" />
        </mxCell>
        <mxCell id="GrQlZQ7Z27dUGGfjWGh0-19" value="&lt;font style=&quot;font-size: 24px;&quot;&gt;&lt;b style=&quot;&quot;&gt;O&lt;/b&gt;&lt;/font&gt;" style="ellipse;whiteSpace=wrap;html=1;aspect=fixed;" parent="1" vertex="1">
          <mxGeometry x="680" y="320" width="80" height="80" as="geometry" />
        </mxCell>
        <mxCell id="GrQlZQ7Z27dUGGfjWGh0-28" value="&lt;font style=&quot;font-size: 24px;&quot;&gt;&lt;b style=&quot;&quot;&gt;R&lt;/b&gt;&lt;/font&gt;" style="ellipse;whiteSpace=wrap;html=1;aspect=fixed;" parent="1" vertex="1">
          <mxGeometry x="2120" y="320" width="80" height="80" as="geometry" />
        </mxCell>
        <mxCell id="GrQlZQ7Z27dUGGfjWGh0-29" style="edgeStyle=orthogonalEdgeStyle;rounded=0;orthogonalLoop=1;jettySize=auto;html=1;strokeWidth=2;" parent="1" source="GrQlZQ7Z27dUGGfjWGh0-30" target="GrQlZQ7Z27dUGGfjWGh0-13" edge="1">
          <mxGeometry relative="1" as="geometry" />
        </mxCell>
        <mxCell id="GrQlZQ7Z27dUGGfjWGh0-30" value="" style="whiteSpace=wrap;html=1;aspect=fixed;" parent="1" vertex="1">
          <mxGeometry x="80" y="340" width="40" height="40" as="geometry" />
        </mxCell>
        <mxCell id="GrQlZQ7Z27dUGGfjWGh0-31" value="" style="whiteSpace=wrap;html=1;aspect=fixed;" parent="1" vertex="1">
          <mxGeometry x="2920" y="340" width="40" height="40" as="geometry" />
        </mxCell>
        <mxCell id="GrQlZQ7Z27dUGGfjWGh0-32" value="" style="curved=1;endArrow=classic;html=1;rounded=0;entryX=0.5;entryY=0;entryDx=0;entryDy=0;strokeWidth=2;" parent="1" target="GrQlZQ7Z27dUGGfjWGh0-31" edge="1">
          <mxGeometry width="50" height="50" relative="1" as="geometry">
            <mxPoint x="2960" y="360" as="sourcePoint" />
            <mxPoint x="3010" y="310" as="targetPoint" />
            <Array as="points">
              <mxPoint x="3010" y="360" />
              <mxPoint x="3000" y="330" />
              <mxPoint x="2960" y="310" />
            </Array>
          </mxGeometry>
        </mxCell>
        <mxCell id="GrQlZQ7Z27dUGGfjWGh0-33" value="&lt;b style=&quot;border-color: var(--border-color); font-size: 18px;&quot;&gt;Z&lt;/b&gt;" style="text;html=1;align=center;verticalAlign=middle;resizable=0;points=[];autosize=1;strokeColor=none;fillColor=none;" parent="1" vertex="1">
          <mxGeometry x="2965" y="360" width="30" height="40" as="geometry" />
        </mxCell>
        <mxCell id="GrQlZQ7Z27dUGGfjWGh0-34" style="edgeStyle=orthogonalEdgeStyle;rounded=0;orthogonalLoop=1;jettySize=auto;html=1;entryX=0;entryY=0.5;entryDx=0;entryDy=0;strokeWidth=2;" parent="1" target="GrQlZQ7Z27dUGGfjWGh0-36" edge="1">
          <mxGeometry relative="1" as="geometry">
            <mxPoint x="2200" y="360" as="sourcePoint" />
          </mxGeometry>
        </mxCell>
        <mxCell id="GrQlZQ7Z27dUGGfjWGh0-35" style="edgeStyle=orthogonalEdgeStyle;rounded=0;orthogonalLoop=1;jettySize=auto;html=1;entryX=0;entryY=0.5;entryDx=0;entryDy=0;strokeWidth=2;" parent="1" source="GrQlZQ7Z27dUGGfjWGh0-36" target="GrQlZQ7Z27dUGGfjWGh0-38" edge="1">
          <mxGeometry relative="1" as="geometry" />
        </mxCell>
        <mxCell id="GrQlZQ7Z27dUGGfjWGh0-36" value="&lt;font style=&quot;font-size: 24px;&quot;&gt;&lt;b style=&quot;&quot;&gt;I&lt;/b&gt;&lt;/font&gt;" style="ellipse;whiteSpace=wrap;html=1;aspect=fixed;" parent="1" vertex="1">
          <mxGeometry x="2280" y="320" width="80" height="80" as="geometry" />
        </mxCell>
        <mxCell id="GrQlZQ7Z27dUGGfjWGh0-37" style="edgeStyle=orthogonalEdgeStyle;rounded=0;orthogonalLoop=1;jettySize=auto;html=1;entryX=0;entryY=0.5;entryDx=0;entryDy=0;strokeWidth=2;" parent="1" source="GrQlZQ7Z27dUGGfjWGh0-38" target="GrQlZQ7Z27dUGGfjWGh0-40" edge="1">
          <mxGeometry relative="1" as="geometry" />
        </mxCell>
        <mxCell id="GrQlZQ7Z27dUGGfjWGh0-38" value="&lt;font style=&quot;font-size: 24px;&quot;&gt;&lt;b style=&quot;&quot;&gt;T&lt;/b&gt;&lt;/font&gt;" style="ellipse;whiteSpace=wrap;html=1;aspect=fixed;" parent="1" vertex="1">
          <mxGeometry x="2440" y="320" width="80" height="80" as="geometry" />
        </mxCell>
        <mxCell id="GrQlZQ7Z27dUGGfjWGh0-39" style="edgeStyle=orthogonalEdgeStyle;rounded=0;orthogonalLoop=1;jettySize=auto;html=1;entryX=0;entryY=0.5;entryDx=0;entryDy=0;strokeWidth=2;" parent="1" source="GrQlZQ7Z27dUGGfjWGh0-40" target="GrQlZQ7Z27dUGGfjWGh0-41" edge="1">
          <mxGeometry relative="1" as="geometry" />
        </mxCell>
        <mxCell id="GrQlZQ7Z27dUGGfjWGh0-40" value="&lt;span style=&quot;font-size: 24px;&quot;&gt;&lt;b&gt;H&lt;/b&gt;&lt;/span&gt;" style="ellipse;whiteSpace=wrap;html=1;aspect=fixed;" parent="1" vertex="1">
          <mxGeometry x="2600" y="320" width="80" height="80" as="geometry" />
        </mxCell>
        <mxCell id="GrQlZQ7Z27dUGGfjWGh0-41" value="&lt;font style=&quot;font-size: 24px;&quot;&gt;&lt;b style=&quot;&quot;&gt;M&lt;/b&gt;&lt;/font&gt;" style="ellipse;whiteSpace=wrap;html=1;aspect=fixed;" parent="1" vertex="1">
          <mxGeometry x="2760" y="320" width="80" height="80" as="geometry" />
        </mxCell>
        <mxCell id="X-IzUZXBUXzdKDUrdPEt-11" style="edgeStyle=orthogonalEdgeStyle;rounded=0;orthogonalLoop=1;jettySize=auto;html=1;entryX=0;entryY=0.5;entryDx=0;entryDy=0;strokeWidth=2;" parent="1" source="X-IzUZXBUXzdKDUrdPEt-12" target="X-IzUZXBUXzdKDUrdPEt-14" edge="1">
          <mxGeometry relative="1" as="geometry" />
        </mxCell>
        <mxCell id="X-IzUZXBUXzdKDUrdPEt-12" value="&lt;font style=&quot;font-size: 24px;&quot;&gt;&lt;b style=&quot;&quot;&gt;A&lt;/b&gt;&lt;/font&gt;" style="ellipse;whiteSpace=wrap;html=1;aspect=fixed;" parent="1" vertex="1">
          <mxGeometry x="840" y="160" width="80" height="80" as="geometry" />
        </mxCell>
        <mxCell id="X-IzUZXBUXzdKDUrdPEt-13" style="edgeStyle=orthogonalEdgeStyle;rounded=0;orthogonalLoop=1;jettySize=auto;html=1;entryX=0;entryY=0.5;entryDx=0;entryDy=0;strokeWidth=2;" parent="1" source="X-IzUZXBUXzdKDUrdPEt-14" target="X-IzUZXBUXzdKDUrdPEt-16" edge="1">
          <mxGeometry relative="1" as="geometry" />
        </mxCell>
        <mxCell id="X-IzUZXBUXzdKDUrdPEt-14" value="&lt;font style=&quot;font-size: 24px;&quot;&gt;&lt;b style=&quot;&quot;&gt;N&lt;/b&gt;&lt;/font&gt;" style="ellipse;whiteSpace=wrap;html=1;aspect=fixed;" parent="1" vertex="1">
          <mxGeometry x="1000" y="160" width="80" height="80" as="geometry" />
        </mxCell>
        <mxCell id="X-IzUZXBUXzdKDUrdPEt-15" style="edgeStyle=orthogonalEdgeStyle;rounded=0;orthogonalLoop=1;jettySize=auto;html=1;entryX=0;entryY=0.5;entryDx=0;entryDy=0;strokeWidth=2;" parent="1" source="X-IzUZXBUXzdKDUrdPEt-16" target="X-IzUZXBUXzdKDUrdPEt-18" edge="1">
          <mxGeometry relative="1" as="geometry" />
        </mxCell>
        <mxCell id="X-IzUZXBUXzdKDUrdPEt-16" value="&lt;font style=&quot;font-size: 24px;&quot;&gt;&lt;b style=&quot;&quot;&gt;A&lt;/b&gt;&lt;/font&gt;" style="ellipse;whiteSpace=wrap;html=1;aspect=fixed;" parent="1" vertex="1">
          <mxGeometry x="1160" y="160" width="80" height="80" as="geometry" />
        </mxCell>
        <mxCell id="X-IzUZXBUXzdKDUrdPEt-17" style="edgeStyle=orthogonalEdgeStyle;rounded=0;orthogonalLoop=1;jettySize=auto;html=1;entryX=0;entryY=0.5;entryDx=0;entryDy=0;strokeWidth=2;" parent="1" source="X-IzUZXBUXzdKDUrdPEt-18" target="X-IzUZXBUXzdKDUrdPEt-20" edge="1">
          <mxGeometry relative="1" as="geometry" />
        </mxCell>
        <mxCell id="X-IzUZXBUXzdKDUrdPEt-18" value="&lt;font style=&quot;font-size: 24px;&quot;&gt;&lt;b style=&quot;&quot;&gt;L&lt;/b&gt;&lt;/font&gt;" style="ellipse;whiteSpace=wrap;html=1;aspect=fixed;" parent="1" vertex="1">
          <mxGeometry x="1320" y="160" width="80" height="80" as="geometry" />
        </mxCell>
        <mxCell id="X-IzUZXBUXzdKDUrdPEt-19" style="edgeStyle=orthogonalEdgeStyle;rounded=0;orthogonalLoop=1;jettySize=auto;html=1;entryX=0;entryY=0.5;entryDx=0;entryDy=0;strokeWidth=2;" parent="1" source="X-IzUZXBUXzdKDUrdPEt-20" target="X-IzUZXBUXzdKDUrdPEt-22" edge="1">
          <mxGeometry relative="1" as="geometry" />
        </mxCell>
        <mxCell id="X-IzUZXBUXzdKDUrdPEt-20" value="&lt;font style=&quot;font-size: 24px;&quot;&gt;&lt;b style=&quot;&quot;&gt;Y&lt;/b&gt;&lt;/font&gt;" style="ellipse;whiteSpace=wrap;html=1;aspect=fixed;" parent="1" vertex="1">
          <mxGeometry x="1480" y="160" width="80" height="80" as="geometry" />
        </mxCell>
        <mxCell id="X-IzUZXBUXzdKDUrdPEt-21" style="edgeStyle=orthogonalEdgeStyle;rounded=0;orthogonalLoop=1;jettySize=auto;html=1;entryX=0;entryY=0.5;entryDx=0;entryDy=0;strokeWidth=2;" parent="1" source="X-IzUZXBUXzdKDUrdPEt-22" target="X-IzUZXBUXzdKDUrdPEt-24" edge="1">
          <mxGeometry relative="1" as="geometry" />
        </mxCell>
        <mxCell id="X-IzUZXBUXzdKDUrdPEt-22" value="&lt;font style=&quot;font-size: 24px;&quot;&gt;&lt;b style=&quot;&quot;&gt;S&lt;/b&gt;&lt;/font&gt;" style="ellipse;whiteSpace=wrap;html=1;aspect=fixed;" parent="1" vertex="1">
          <mxGeometry x="1640" y="160" width="80" height="80" as="geometry" />
        </mxCell>
        <mxCell id="X-IzUZXBUXzdKDUrdPEt-23" style="edgeStyle=orthogonalEdgeStyle;rounded=0;orthogonalLoop=1;jettySize=auto;html=1;entryX=0;entryY=0.5;entryDx=0;entryDy=0;strokeWidth=2;" parent="1" source="X-IzUZXBUXzdKDUrdPEt-24" target="X-IzUZXBUXzdKDUrdPEt-25" edge="1">
          <mxGeometry relative="1" as="geometry" />
        </mxCell>
        <mxCell id="X-IzUZXBUXzdKDUrdPEt-24" value="&lt;font style=&quot;font-size: 24px;&quot;&gt;&lt;b style=&quot;&quot;&gt;I&lt;/b&gt;&lt;/font&gt;" style="ellipse;whiteSpace=wrap;html=1;aspect=fixed;" parent="1" vertex="1">
          <mxGeometry x="1800" y="160" width="80" height="80" as="geometry" />
        </mxCell>
        <mxCell id="X-IzUZXBUXzdKDUrdPEt-25" value="&lt;span style=&quot;font-size: 24px;&quot;&gt;&lt;b&gt;S&lt;/b&gt;&lt;/span&gt;" style="ellipse;whiteSpace=wrap;html=1;aspect=fixed;" parent="1" vertex="1">
          <mxGeometry x="1960" y="160" width="80" height="80" as="geometry" />
        </mxCell>
        <mxCell id="X-IzUZXBUXzdKDUrdPEt-32" value="" style="curved=1;endArrow=classic;html=1;rounded=0;strokeWidth=2;exitX=0.5;exitY=0;exitDx=0;exitDy=0;entryX=0;entryY=0.5;entryDx=0;entryDy=0;" parent="1" target="X-IzUZXBUXzdKDUrdPEt-12" edge="1">
          <mxGeometry width="50" height="50" relative="1" as="geometry">
            <mxPoint x="720" y="320" as="sourcePoint" />
            <mxPoint x="820" y="230" as="targetPoint" />
            <Array as="points">
              <mxPoint x="730" y="250" />
            </Array>
          </mxGeometry>
        </mxCell>
        <mxCell id="X-IzUZXBUXzdKDUrdPEt-44" value="" style="curved=1;endArrow=classic;html=1;rounded=0;entryX=0.5;entryY=0;entryDx=0;entryDy=0;exitX=1;exitY=0.5;exitDx=0;exitDy=0;strokeWidth=2;" parent="1" target="GrQlZQ7Z27dUGGfjWGh0-28" edge="1">
          <mxGeometry width="50" height="50" relative="1" as="geometry">
            <mxPoint x="2040" y="200" as="sourcePoint" />
            <mxPoint x="2120" y="120" as="targetPoint" />
            <Array as="points">
              <mxPoint x="2130" y="200" />
            </Array>
          </mxGeometry>
        </mxCell>
        <mxCell id="aXvtKXnZhHnOBjw73lqy-1" style="edgeStyle=orthogonalEdgeStyle;rounded=0;orthogonalLoop=1;jettySize=auto;html=1;entryX=-0.08;entryY=0.517;entryDx=0;entryDy=0;entryPerimeter=0;strokeWidth=2;" edge="1" parent="1" source="GrQlZQ7Z27dUGGfjWGh0-41" target="GrQlZQ7Z27dUGGfjWGh0-31">
          <mxGeometry relative="1" as="geometry" />
        </mxCell>
        <mxCell id="aXvtKXnZhHnOBjw73lqy-2" style="edgeStyle=orthogonalEdgeStyle;rounded=0;orthogonalLoop=1;jettySize=auto;html=1;entryX=0;entryY=0.5;entryDx=0;entryDy=0;strokeWidth=2;" edge="1" parent="1" source="aXvtKXnZhHnOBjw73lqy-3" target="aXvtKXnZhHnOBjw73lqy-5">
          <mxGeometry relative="1" as="geometry" />
        </mxCell>
        <mxCell id="aXvtKXnZhHnOBjw73lqy-3" value="&lt;font style=&quot;font-size: 24px;&quot;&gt;&lt;b style=&quot;&quot;&gt;A&lt;/b&gt;&lt;/font&gt;" style="ellipse;whiteSpace=wrap;html=1;aspect=fixed;" vertex="1" parent="1">
          <mxGeometry x="200" y="560" width="80" height="80" as="geometry" />
        </mxCell>
        <mxCell id="aXvtKXnZhHnOBjw73lqy-4" style="edgeStyle=orthogonalEdgeStyle;rounded=0;orthogonalLoop=1;jettySize=auto;html=1;entryX=0;entryY=0.5;entryDx=0;entryDy=0;strokeWidth=2;" edge="1" parent="1" source="aXvtKXnZhHnOBjw73lqy-5" target="aXvtKXnZhHnOBjw73lqy-7">
          <mxGeometry relative="1" as="geometry" />
        </mxCell>
        <mxCell id="aXvtKXnZhHnOBjw73lqy-5" value="&lt;font style=&quot;font-size: 24px;&quot;&gt;&lt;b style=&quot;&quot;&gt;L&lt;/b&gt;&lt;/font&gt;" style="ellipse;whiteSpace=wrap;html=1;aspect=fixed;" vertex="1" parent="1">
          <mxGeometry x="360" y="560" width="80" height="80" as="geometry" />
        </mxCell>
        <mxCell id="aXvtKXnZhHnOBjw73lqy-6" style="edgeStyle=orthogonalEdgeStyle;rounded=0;orthogonalLoop=1;jettySize=auto;html=1;entryX=0;entryY=0.5;entryDx=0;entryDy=0;strokeWidth=2;" edge="1" parent="1" source="aXvtKXnZhHnOBjw73lqy-7" target="aXvtKXnZhHnOBjw73lqy-8">
          <mxGeometry relative="1" as="geometry" />
        </mxCell>
        <mxCell id="aXvtKXnZhHnOBjw73lqy-7" value="&lt;font style=&quot;font-size: 24px;&quot;&gt;&lt;b style=&quot;&quot;&gt;G&lt;/b&gt;&lt;/font&gt;" style="ellipse;whiteSpace=wrap;html=1;aspect=fixed;" vertex="1" parent="1">
          <mxGeometry x="520" y="560" width="80" height="80" as="geometry" />
        </mxCell>
        <mxCell id="aXvtKXnZhHnOBjw73lqy-41" style="edgeStyle=orthogonalEdgeStyle;rounded=0;orthogonalLoop=1;jettySize=auto;html=1;strokeWidth=2;" edge="1" parent="1" source="aXvtKXnZhHnOBjw73lqy-8" target="aXvtKXnZhHnOBjw73lqy-24">
          <mxGeometry relative="1" as="geometry" />
        </mxCell>
        <mxCell id="aXvtKXnZhHnOBjw73lqy-8" value="&lt;font style=&quot;font-size: 24px;&quot;&gt;&lt;b style=&quot;&quot;&gt;O&lt;/b&gt;&lt;/font&gt;" style="ellipse;whiteSpace=wrap;html=1;aspect=fixed;" vertex="1" parent="1">
          <mxGeometry x="680" y="560" width="80" height="80" as="geometry" />
        </mxCell>
        <mxCell id="aXvtKXnZhHnOBjw73lqy-9" value="&lt;font style=&quot;font-size: 24px;&quot;&gt;&lt;b style=&quot;&quot;&gt;R&lt;/b&gt;&lt;/font&gt;" style="ellipse;whiteSpace=wrap;html=1;aspect=fixed;" vertex="1" parent="1">
          <mxGeometry x="2120" y="560" width="80" height="80" as="geometry" />
        </mxCell>
        <mxCell id="aXvtKXnZhHnOBjw73lqy-10" style="edgeStyle=orthogonalEdgeStyle;rounded=0;orthogonalLoop=1;jettySize=auto;html=1;strokeWidth=2;" edge="1" parent="1" source="aXvtKXnZhHnOBjw73lqy-11" target="aXvtKXnZhHnOBjw73lqy-3">
          <mxGeometry relative="1" as="geometry" />
        </mxCell>
        <mxCell id="aXvtKXnZhHnOBjw73lqy-11" value="" style="whiteSpace=wrap;html=1;aspect=fixed;" vertex="1" parent="1">
          <mxGeometry x="80" y="580" width="40" height="40" as="geometry" />
        </mxCell>
        <mxCell id="aXvtKXnZhHnOBjw73lqy-12" value="" style="whiteSpace=wrap;html=1;aspect=fixed;" vertex="1" parent="1">
          <mxGeometry x="2920" y="580" width="40" height="40" as="geometry" />
        </mxCell>
        <mxCell id="aXvtKXnZhHnOBjw73lqy-13" value="" style="curved=1;endArrow=classic;html=1;rounded=0;entryX=0.5;entryY=0;entryDx=0;entryDy=0;strokeWidth=2;" edge="1" parent="1" target="aXvtKXnZhHnOBjw73lqy-12">
          <mxGeometry width="50" height="50" relative="1" as="geometry">
            <mxPoint x="2960" y="600" as="sourcePoint" />
            <mxPoint x="3010" y="550" as="targetPoint" />
            <Array as="points">
              <mxPoint x="3010" y="600" />
              <mxPoint x="3000" y="570" />
              <mxPoint x="2960" y="550" />
            </Array>
          </mxGeometry>
        </mxCell>
        <mxCell id="aXvtKXnZhHnOBjw73lqy-14" value="&lt;b style=&quot;border-color: var(--border-color); font-size: 18px;&quot;&gt;Z&lt;/b&gt;" style="text;html=1;align=center;verticalAlign=middle;resizable=0;points=[];autosize=1;strokeColor=none;fillColor=none;" vertex="1" parent="1">
          <mxGeometry x="2965" y="600" width="30" height="40" as="geometry" />
        </mxCell>
        <mxCell id="aXvtKXnZhHnOBjw73lqy-15" style="edgeStyle=orthogonalEdgeStyle;rounded=0;orthogonalLoop=1;jettySize=auto;html=1;entryX=0;entryY=0.5;entryDx=0;entryDy=0;strokeWidth=2;" edge="1" parent="1" target="aXvtKXnZhHnOBjw73lqy-17">
          <mxGeometry relative="1" as="geometry">
            <mxPoint x="2200" y="600" as="sourcePoint" />
          </mxGeometry>
        </mxCell>
        <mxCell id="aXvtKXnZhHnOBjw73lqy-16" style="edgeStyle=orthogonalEdgeStyle;rounded=0;orthogonalLoop=1;jettySize=auto;html=1;entryX=0;entryY=0.5;entryDx=0;entryDy=0;strokeWidth=2;" edge="1" parent="1" source="aXvtKXnZhHnOBjw73lqy-17" target="aXvtKXnZhHnOBjw73lqy-19">
          <mxGeometry relative="1" as="geometry" />
        </mxCell>
        <mxCell id="aXvtKXnZhHnOBjw73lqy-17" value="&lt;font style=&quot;font-size: 24px;&quot;&gt;&lt;b style=&quot;&quot;&gt;I&lt;/b&gt;&lt;/font&gt;" style="ellipse;whiteSpace=wrap;html=1;aspect=fixed;" vertex="1" parent="1">
          <mxGeometry x="2280" y="560" width="80" height="80" as="geometry" />
        </mxCell>
        <mxCell id="aXvtKXnZhHnOBjw73lqy-18" style="edgeStyle=orthogonalEdgeStyle;rounded=0;orthogonalLoop=1;jettySize=auto;html=1;entryX=0;entryY=0.5;entryDx=0;entryDy=0;strokeWidth=2;" edge="1" parent="1" source="aXvtKXnZhHnOBjw73lqy-19" target="aXvtKXnZhHnOBjw73lqy-21">
          <mxGeometry relative="1" as="geometry" />
        </mxCell>
        <mxCell id="aXvtKXnZhHnOBjw73lqy-19" value="&lt;font style=&quot;font-size: 24px;&quot;&gt;&lt;b style=&quot;&quot;&gt;T&lt;/b&gt;&lt;/font&gt;" style="ellipse;whiteSpace=wrap;html=1;aspect=fixed;" vertex="1" parent="1">
          <mxGeometry x="2440" y="560" width="80" height="80" as="geometry" />
        </mxCell>
        <mxCell id="aXvtKXnZhHnOBjw73lqy-20" style="edgeStyle=orthogonalEdgeStyle;rounded=0;orthogonalLoop=1;jettySize=auto;html=1;entryX=0;entryY=0.5;entryDx=0;entryDy=0;strokeWidth=2;" edge="1" parent="1" source="aXvtKXnZhHnOBjw73lqy-21" target="aXvtKXnZhHnOBjw73lqy-22">
          <mxGeometry relative="1" as="geometry" />
        </mxCell>
        <mxCell id="aXvtKXnZhHnOBjw73lqy-21" value="&lt;span style=&quot;font-size: 24px;&quot;&gt;&lt;b&gt;H&lt;/b&gt;&lt;/span&gt;" style="ellipse;whiteSpace=wrap;html=1;aspect=fixed;" vertex="1" parent="1">
          <mxGeometry x="2600" y="560" width="80" height="80" as="geometry" />
        </mxCell>
        <mxCell id="aXvtKXnZhHnOBjw73lqy-22" value="&lt;font style=&quot;font-size: 24px;&quot;&gt;&lt;b style=&quot;&quot;&gt;M&lt;/b&gt;&lt;/font&gt;" style="ellipse;whiteSpace=wrap;html=1;aspect=fixed;" vertex="1" parent="1">
          <mxGeometry x="2760" y="560" width="80" height="80" as="geometry" />
        </mxCell>
        <mxCell id="aXvtKXnZhHnOBjw73lqy-23" style="edgeStyle=orthogonalEdgeStyle;rounded=0;orthogonalLoop=1;jettySize=auto;html=1;entryX=0;entryY=0.5;entryDx=0;entryDy=0;strokeWidth=2;" edge="1" parent="1" source="aXvtKXnZhHnOBjw73lqy-24" target="aXvtKXnZhHnOBjw73lqy-26">
          <mxGeometry relative="1" as="geometry" />
        </mxCell>
        <mxCell id="aXvtKXnZhHnOBjw73lqy-24" value="&lt;font style=&quot;font-size: 24px;&quot;&gt;&lt;b style=&quot;&quot;&gt;A&lt;/b&gt;&lt;/font&gt;" style="ellipse;whiteSpace=wrap;html=1;aspect=fixed;" vertex="1" parent="1">
          <mxGeometry x="840" y="560" width="80" height="80" as="geometry" />
        </mxCell>
        <mxCell id="aXvtKXnZhHnOBjw73lqy-25" style="edgeStyle=orthogonalEdgeStyle;rounded=0;orthogonalLoop=1;jettySize=auto;html=1;entryX=0;entryY=0.5;entryDx=0;entryDy=0;strokeWidth=2;" edge="1" parent="1" source="aXvtKXnZhHnOBjw73lqy-26" target="aXvtKXnZhHnOBjw73lqy-28">
          <mxGeometry relative="1" as="geometry" />
        </mxCell>
        <mxCell id="aXvtKXnZhHnOBjw73lqy-26" value="&lt;font style=&quot;font-size: 24px;&quot;&gt;&lt;b style=&quot;&quot;&gt;N&lt;/b&gt;&lt;/font&gt;" style="ellipse;whiteSpace=wrap;html=1;aspect=fixed;" vertex="1" parent="1">
          <mxGeometry x="1000" y="560" width="80" height="80" as="geometry" />
        </mxCell>
        <mxCell id="aXvtKXnZhHnOBjw73lqy-27" style="edgeStyle=orthogonalEdgeStyle;rounded=0;orthogonalLoop=1;jettySize=auto;html=1;entryX=0;entryY=0.5;entryDx=0;entryDy=0;strokeWidth=2;" edge="1" parent="1" source="aXvtKXnZhHnOBjw73lqy-28" target="aXvtKXnZhHnOBjw73lqy-30">
          <mxGeometry relative="1" as="geometry" />
        </mxCell>
        <mxCell id="aXvtKXnZhHnOBjw73lqy-28" value="&lt;font style=&quot;font-size: 24px;&quot;&gt;&lt;b style=&quot;&quot;&gt;A&lt;/b&gt;&lt;/font&gt;" style="ellipse;whiteSpace=wrap;html=1;aspect=fixed;" vertex="1" parent="1">
          <mxGeometry x="1160" y="560" width="80" height="80" as="geometry" />
        </mxCell>
        <mxCell id="aXvtKXnZhHnOBjw73lqy-29" style="edgeStyle=orthogonalEdgeStyle;rounded=0;orthogonalLoop=1;jettySize=auto;html=1;entryX=0;entryY=0.5;entryDx=0;entryDy=0;strokeWidth=2;" edge="1" parent="1" source="aXvtKXnZhHnOBjw73lqy-30" target="aXvtKXnZhHnOBjw73lqy-32">
          <mxGeometry relative="1" as="geometry" />
        </mxCell>
        <mxCell id="aXvtKXnZhHnOBjw73lqy-30" value="&lt;font style=&quot;font-size: 24px;&quot;&gt;&lt;b style=&quot;&quot;&gt;L&lt;/b&gt;&lt;/font&gt;" style="ellipse;whiteSpace=wrap;html=1;aspect=fixed;" vertex="1" parent="1">
          <mxGeometry x="1320" y="560" width="80" height="80" as="geometry" />
        </mxCell>
        <mxCell id="aXvtKXnZhHnOBjw73lqy-31" style="edgeStyle=orthogonalEdgeStyle;rounded=0;orthogonalLoop=1;jettySize=auto;html=1;entryX=0;entryY=0.5;entryDx=0;entryDy=0;strokeWidth=2;" edge="1" parent="1" source="aXvtKXnZhHnOBjw73lqy-32" target="aXvtKXnZhHnOBjw73lqy-34">
          <mxGeometry relative="1" as="geometry" />
        </mxCell>
        <mxCell id="aXvtKXnZhHnOBjw73lqy-32" value="&lt;font style=&quot;font-size: 24px;&quot;&gt;&lt;b style=&quot;&quot;&gt;Y&lt;/b&gt;&lt;/font&gt;" style="ellipse;whiteSpace=wrap;html=1;aspect=fixed;" vertex="1" parent="1">
          <mxGeometry x="1480" y="560" width="80" height="80" as="geometry" />
        </mxCell>
        <mxCell id="aXvtKXnZhHnOBjw73lqy-33" style="edgeStyle=orthogonalEdgeStyle;rounded=0;orthogonalLoop=1;jettySize=auto;html=1;entryX=0;entryY=0.5;entryDx=0;entryDy=0;strokeWidth=2;" edge="1" parent="1" source="aXvtKXnZhHnOBjw73lqy-34" target="aXvtKXnZhHnOBjw73lqy-36">
          <mxGeometry relative="1" as="geometry" />
        </mxCell>
        <mxCell id="aXvtKXnZhHnOBjw73lqy-34" value="&lt;font style=&quot;font-size: 24px;&quot;&gt;&lt;b style=&quot;&quot;&gt;S&lt;/b&gt;&lt;/font&gt;" style="ellipse;whiteSpace=wrap;html=1;aspect=fixed;" vertex="1" parent="1">
          <mxGeometry x="1640" y="560" width="80" height="80" as="geometry" />
        </mxCell>
        <mxCell id="aXvtKXnZhHnOBjw73lqy-35" style="edgeStyle=orthogonalEdgeStyle;rounded=0;orthogonalLoop=1;jettySize=auto;html=1;entryX=0;entryY=0.5;entryDx=0;entryDy=0;strokeWidth=2;" edge="1" parent="1" source="aXvtKXnZhHnOBjw73lqy-36" target="aXvtKXnZhHnOBjw73lqy-37">
          <mxGeometry relative="1" as="geometry" />
        </mxCell>
        <mxCell id="aXvtKXnZhHnOBjw73lqy-36" value="&lt;font style=&quot;font-size: 24px;&quot;&gt;&lt;b style=&quot;&quot;&gt;I&lt;/b&gt;&lt;/font&gt;" style="ellipse;whiteSpace=wrap;html=1;aspect=fixed;" vertex="1" parent="1">
          <mxGeometry x="1800" y="560" width="80" height="80" as="geometry" />
        </mxCell>
        <mxCell id="aXvtKXnZhHnOBjw73lqy-42" style="edgeStyle=orthogonalEdgeStyle;rounded=0;orthogonalLoop=1;jettySize=auto;html=1;entryX=0;entryY=0.5;entryDx=0;entryDy=0;strokeWidth=2;" edge="1" parent="1" source="aXvtKXnZhHnOBjw73lqy-37" target="aXvtKXnZhHnOBjw73lqy-9">
          <mxGeometry relative="1" as="geometry" />
        </mxCell>
        <mxCell id="aXvtKXnZhHnOBjw73lqy-37" value="&lt;span style=&quot;font-size: 24px;&quot;&gt;&lt;b&gt;S&lt;/b&gt;&lt;/span&gt;" style="ellipse;whiteSpace=wrap;html=1;aspect=fixed;" vertex="1" parent="1">
          <mxGeometry x="1960" y="560" width="80" height="80" as="geometry" />
        </mxCell>
        <mxCell id="aXvtKXnZhHnOBjw73lqy-40" style="edgeStyle=orthogonalEdgeStyle;rounded=0;orthogonalLoop=1;jettySize=auto;html=1;entryX=-0.08;entryY=0.517;entryDx=0;entryDy=0;entryPerimeter=0;strokeWidth=2;" edge="1" parent="1" source="aXvtKXnZhHnOBjw73lqy-22" target="aXvtKXnZhHnOBjw73lqy-12">
          <mxGeometry relative="1" as="geometry" />
        </mxCell>
      </root>
    </mxGraphModel>
  </diagram>
</mxfile>
